<?xml version="1.0" standalone="no"?>
<!DOCTYPE svg PUBLIC "-//W3C//DTD SVG 20010904//EN"
 "http://www.w3.org/TR/2001/REC-SVG-20010904/DTD/svg10.dtd">
<svg version="1.0" xmlns="http://www.w3.org/2000/svg"
 width="200.000000pt" height="200.000000pt" viewBox="0 0 200.000000 200.000000"
 preserveAspectRatio="xMidYMid meet">
<metadata>
Created by potrace 1.14, written by Peter Selinger 2001-2017
</metadata>
<g transform="translate(0.000000,200.000000) scale(0.100000,-0.100000)"
fill="#000000" stroke="none">
<path d="M767 1983 c4 -10 9 -11 19 -2 11 9 18 8 29 -1 11 -9 15 -9 15 -1 0 7
5 9 11 6 18 -12 0 -19 -54 -21 -102 -4 -138 -8 -144 -18 -3 -5 -1 -6 5 -2 7 4
12 1 12 -6 0 -10 3 -9 11 2 8 12 10 12 7 1 -4 -15 -19 -19 -80 -23 -29 -2 -38
-7 -38 -22 0 -12 -5 -16 -15 -12 -16 6 -39 -26 -27 -39 4 -5 2 -5 -5 -1 -7 4
-10 12 -7 20 3 7 -1 13 -9 13 -8 0 -14 -9 -13 -21 1 -15 -5 -21 -24 -21 -14 0
-25 -5 -25 -12 0 -17 -7 -21 -40 -26 -17 -2 -31 -9 -31 -15 -1 -7 -2 -17 -3
-23 0 -6 -10 -8 -23 -3 -13 3 -20 3 -16 -1 12 -13 -11 -45 -27 -39 -11 4 -13
2 -9 -9 3 -8 1 -18 -5 -21 -6 -4 -8 -13 -5 -20 3 -8 1 -17 -4 -20 -5 -3 -9 2
-8 11 0 9 -5 18 -13 21 -9 3 -11 0 -7 -7 4 -7 3 -17 -2 -24 -5 -7 -8 -20 -7
-30 2 -9 0 -15 -5 -12 -17 11 -38 -6 -32 -27 4 -17 2 -20 -15 -16 -16 4 -21 1
-21 -16 -1 -11 -3 -30 -6 -41 -2 -11 -5 -22 -5 -24 -1 -3 -7 1 -13 7 -10 10
-10 15 2 23 13 9 13 10 0 6 -9 -2 -16 -18 -18 -43 -1 -21 -8 -43 -14 -49 -7
-7 -9 -7 -5 1 3 6 1 11 -6 11 -11 0 -18 -32 -20 -94 -1 -15 -7 -23 -18 -23 -9
0 -17 -6 -16 -12 2 -55 -4 -88 -15 -82 -7 5 -8 3 -2 -7 5 -8 9 -29 11 -48 1
-32 1 -33 -13 -12 -8 12 -12 26 -9 31 3 6 2 10 -4 10 -5 0 -9 -13 -9 -30 1
-16 5 -27 10 -24 4 3 8 0 8 -5 0 -6 -4 -11 -9 -11 -16 0 -9 -327 8 -342 11
-11 12 -10 2 9 -14 28 -14 36 2 27 8 -5 8 -2 -2 9 -9 11 -10 17 -2 17 6 0 11
-3 12 -7 0 -5 2 -17 4 -28 2 -11 5 -43 6 -72 1 -29 6 -58 11 -65 4 -7 8 -8 8
-3 1 22 20 -22 20 -45 0 -15 6 -32 13 -39 6 -8 7 -11 1 -8 -6 3 -11 0 -11 -8
0 -10 5 -11 17 -5 12 7 16 4 17 -13 2 -44 10 -71 24 -75 8 -2 10 0 4 5 -15 12
-16 30 -1 30 7 0 13 -5 13 -11 -1 -48 5 -64 24 -69 15 -4 20 -11 16 -21 -4 -9
-2 -16 4 -16 6 0 7 -6 3 -12 -5 -9 -2 -9 9 1 9 7 17 12 18 10 0 -2 3 -13 6
-24 2 -11 5 -28 6 -37 1 -9 4 -15 8 -12 11 6 40 -26 34 -37 -4 -5 1 -9 10 -9
23 0 49 -27 32 -33 -6 -3 -3 -5 8 -5 47 -1 67 -15 48 -32 -4 -3 -3 0 0 6 3 6
0 11 -7 11 -7 0 -13 -6 -13 -13 0 -6 7 -11 16 -9 9 1 25 -5 35 -14 11 -9 16
-10 12 -3 -4 6 -3 12 2 12 16 0 22 -13 11 -27 -9 -10 -5 -13 22 -14 19 -1 37
-1 41 0 4 0 5 -6 1 -15 -5 -13 -7 -13 -14 -2 -5 7 -9 8 -9 2 0 -18 13 -24 27
-12 11 9 13 8 11 -3 -2 -9 4 -13 19 -11 14 2 23 -4 27 -15 6 -18 15 -20 90
-26 11 -1 21 -9 23 -17 4 -13 3 -13 -6 0 -8 12 -13 12 -23 2 -6 -6 -10 -13 -8
-13 11 -3 79 -8 133 -11 38 -1 62 -7 70 -18 10 -12 10 -13 -3 -4 -8 6 -26 11
-39 12 -22 1 -22 0 -6 -12 24 -18 101 -16 97 2 -1 8 2 11 8 7 6 -3 8 -11 4
-16 -3 -6 57 -9 163 -7 99 2 169 7 168 13 0 5 -8 10 -17 10 -40 3 -26 13 19
14 111 3 123 4 118 11 -3 5 1 11 7 14 7 3 4 4 -7 3 -11 -1 -24 -6 -28 -12 -5
-6 -7 -4 -4 5 2 11 19 16 57 17 29 1 58 8 64 14 8 9 8 10 -1 5 -7 -4 -13 -3
-13 2 0 12 49 30 72 27 9 -2 19 4 22 12 3 8 1 11 -4 8 -6 -3 -10 -1 -10 5 0 7
12 10 28 8 22 -2 27 1 26 19 -1 14 3 20 12 16 8 -3 12 -9 9 -13 -3 -5 -1 -11
4 -15 6 -3 8 3 6 15 -4 19 5 25 34 20 9 -1 12 5 8 19 -4 15 1 21 17 23 13 2
20 10 20 21 -1 12 6 17 23 17 17 0 23 5 21 18 -2 11 4 18 19 20 14 2 23 11 25
25 2 14 9 21 20 19 12 -2 16 3 13 18 -2 11 0 21 6 21 5 1 15 2 21 3 7 0 14 14
15 30 3 42 10 56 26 50 10 -3 14 5 15 32 2 39 21 62 34 41 6 -10 13 49 11 100
-1 7 4 10 9 7 5 -4 7 -15 4 -27 -4 -15 -2 -17 6 -9 16 16 19 42 5 42 -8 0 -7
3 2 9 8 5 13 28 14 60 0 28 4 51 10 51 5 0 7 7 4 14 -4 10 -1 13 8 10 11 -5
13 28 13 190 0 108 -4 196 -9 196 -5 0 -9 -6 -9 -12 0 -9 -3 -9 -9 1 -13 20
-2 44 14 31 8 -7 12 -5 12 5 0 8 -5 11 -10 8 -7 -4 -8 1 -3 12 5 15 4 16 -9 5
-13 -11 -15 -6 -15 39 0 34 -4 51 -12 51 -9 0 -8 4 2 11 12 8 12 9 -5 7 -20
-3 -23 5 -26 69 -1 15 -7 20 -20 18 -16 -3 -19 2 -19 36 0 32 -3 39 -17 37
-10 -2 -18 3 -19 10 -1 6 -2 18 -3 26 0 9 -9 13 -20 11 -14 -2 -18 1 -14 11 3
7 9 12 13 9 5 -3 11 -1 15 4 3 6 -3 8 -15 6 -15 -3 -20 1 -20 17 0 11 -8 22
-20 25 -19 5 -25 16 -21 37 1 5 -7 6 -18 3 -16 -4 -21 1 -23 22 -2 17 -8 25
-19 23 -10 -1 -19 6 -22 19 -4 14 -11 20 -21 16 -10 -4 -16 1 -18 16 -2 14
-11 23 -26 25 -12 2 -19 8 -16 14 4 7 0 7 -13 0 -15 -9 -20 -8 -20 3 0 8 5 11
10 8 6 -3 7 -1 3 5 -4 7 -16 12 -26 12 -10 0 -26 10 -34 22 -10 14 -25 21 -46
20 -28 -1 -30 1 -18 16 9 11 10 14 1 8 -8 -4 -13 -2 -13 4 0 6 -5 8 -10 5 -6
-4 -16 -3 -23 2 -7 5 -28 9 -48 8 -20 0 -36 4 -36 10 0 7 6 12 13 12 7 0 10
-5 7 -10 -3 -6 -1 -7 6 -3 19 12 5 22 -36 25 -21 2 -47 4 -58 5 -14 1 -19 7
-17 21 2 16 1 17 -7 5 -5 -8 -8 -17 -5 -21 2 -4 -7 -6 -21 -5 -25 1 -25 1 -5
16 21 16 21 16 -3 15 -12 -1 -29 -5 -37 -10 -8 -5 -11 -4 -6 3 5 8 -48 11
-193 10 -159 -2 -198 -5 -194 -15z m-177 -93 c0 -5 -2 -10 -4 -10 -3 0 -8 5
-11 10 -3 6 -1 10 4 10 6 0 11 -4 11 -10z m-193 -115 c0 -6 -6 -12 -12 -12 -6
0 -12 6 -12 12 0 6 6 12 12 12 6 0 12 -6 12 -12z m1388 -166 c-4 -5 -12 -9
-18 -8 -9 0 -8 2 1 6 6 2 9 10 6 15 -4 7 -2 8 5 4 6 -4 9 -12 6 -17z m-1759
-585 c1 -9 0 -13 -4 -10 -3 4 -7 14 -8 22 -1 9 0 13 4 10 3 -4 7 -14 8 -22z
m9 -154 c3 -6 -1 -7 -9 -4 -18 7 -21 14 -7 14 6 0 13 -4 16 -10z m1795 -449
c0 -4 -7 -8 -15 -8 -16 0 -20 9 -9 20 8 8 24 -1 24 -12z m-1552 -86 c-3 -3 -9
2 -12 12 -6 14 -5 15 5 6 7 -7 10 -15 7 -18z m1347 -115 c3 -6 -1 -7 -9 -4
-18 7 -21 14 -7 14 6 0 13 -4 16 -10z m-1030 -118 c-3 -3 -11 0 -18 7 -9 10
-8 11 6 5 10 -3 15 -9 12 -12z"/>
<path d="M206 1632 c-3 -5 1 -9 9 -9 8 0 12 4 9 9 -3 4 -7 8 -9 8 -2 0 -6 -4
-9 -8z"/>
<path d="M45 1340 c3 -5 8 -10 11 -10 2 0 4 5 4 10 0 6 -5 10 -11 10 -5 0 -7
-4 -4 -10z"/>
<path d="M1983 788 c-11 -19 -12 -37 -2 -44 5 -3 9 -2 8 3 -1 4 0 10 1 13 4
12 8 40 5 40 -2 0 -7 -6 -12 -12z"/>
<path d="M40 656 c0 -2 7 -7 16 -10 8 -3 12 -2 9 4 -6 10 -25 14 -25 6z"/>
<path d="M767 9 c7 -7 15 -10 18 -7 3 3 -2 9 -12 12 -14 6 -15 5 -6 -5z"/>
</g>
</svg>
