<svg aria-hidden="true" style="position: absolute; width: 0; height: 0; overflow: hidden;" version="1.1" xmlns="http://www.w3.org/2000/svg" xmlns:xlink="http://www.w3.org/1999/xlink">
<defs>
<symbol id="icon-arrow" viewBox="0 0 32 32">
<path d="M7.44 26.347l10.347-10.347-10.347-10.347c-1.040-1.040-1.040-2.72 0-3.76s2.72-1.040 3.76 0l12.24 12.24c1.040 1.040 1.040 2.72 0 3.76l-12.24 12.24c-1.040 1.040-2.72 1.040-3.76 0-1.013-1.040-1.040-2.747 0-3.787z"></path>
</symbol>
<symbol id="icon-bucket" viewBox="0 0 32 32">
<path d="M30.4 11.809v-0.076c0-0.884-0.716-1.6-1.6-1.6 0-2.647-1.675-4.8-3.733-4.8-0.492-0-0.976 0.12-1.411 0.349-0.061 0.028-0.124 0.053-0.189 0.073v-0.356c0.192-0.713 0.864-1.189 1.6-1.133h1.067c1.178 0 2.133-0.955 2.133-2.133v-0.533c0-0.295-0.239-0.533-0.533-0.533h-1.067c-1.178 0-2.133 0.955-2.133 2.133v0.046c-0.382 0.060-0.747 0.204-1.067 0.421v-1.001c0-0.295-0.239-0.533-0.533-0.533s-0.533 0.239-0.533 0.533v3.089c-0.065-0.020-0.129-0.045-0.19-0.074-0.526-0.27-1.118-0.383-1.707-0.324-0.604-0.678-1.462-1.073-2.37-1.091-0.492 0.001-0.976 0.121-1.41 0.351-0.062 0.028-0.125 0.052-0.19 0.072v-0.357c0.192-0.713 0.864-1.189 1.6-1.133h1.067c1.178 0 2.133-0.955 2.133-2.133v-0.533c0-0.295-0.239-0.533-0.533-0.533h-1.067c-1.178 0-2.133 0.955-2.133 2.133v0.046c-0.382 0.060-0.747 0.204-1.067 0.421v-1.001c0-0.295-0.239-0.533-0.533-0.533s-0.533 0.239-0.533 0.533v3.090c-0.065-0.020-0.128-0.044-0.189-0.072-0.435-0.23-0.919-0.35-1.411-0.351-0.906 0.019-1.764 0.414-2.367 1.091-0.59-0.060-1.184 0.053-1.711 0.325-0.061 0.028-0.124 0.053-0.189 0.073v-3.089c0-0.295-0.239-0.533-0.533-0.533s-0.533 0.239-0.533 0.533v1.001c-0.32-0.217-0.684-0.361-1.067-0.421v-0.046c0-1.178-0.955-2.133-2.133-2.133h-1.067c-0.295 0-0.533 0.239-0.533 0.533v0.533c0 1.178 0.955 2.133 2.133 2.133h1.067c0.737-0.056 1.409 0.42 1.6 1.134v0.355c-0.065-0.020-0.129-0.045-0.19-0.074-0.435-0.229-0.918-0.348-1.41-0.348-2.058 0-3.733 2.153-3.733 4.8-0.884 0-1.6 0.716-1.6 1.6v0.076c-0.939 0.242-1.596 1.088-1.6 2.058v2.667c0.005 2.885 2.106 5.339 4.956 5.789l1.66 7.94c0.274 1.055 1.244 1.777 2.332 1.738h14.102c1.089 0.039 2.059-0.683 2.332-1.738l1.66-7.94c2.85-0.45 4.951-2.903 4.956-5.789v-2.667c-0.004-0.97-0.661-1.815-1.6-2.058zM26.667 2.133h0.533c0 0.589-0.478 1.067-1.067 1.067h-0.533c0-0.589 0.478-1.067 1.067-1.067zM19.733 1.067h0.533c0 0.589-0.478 1.067-1.067 1.067h-0.533c0-0.589 0.478-1.067 1.067-1.067zM4.8 2.133h0.533c0.589 0 1.067 0.478 1.067 1.067h-0.533c-0.589 0-1.067-0.478-1.067-1.067zM22.928 6.933h0.011c0.423-0.002 0.838-0.107 1.212-0.305 0.282-0.15 0.596-0.228 0.916-0.229 1.47 0 2.667 1.675 2.667 3.733h-5.963c0.063-0.352 0.095-0.709 0.097-1.067 0.005-0.902-0.201-1.793-0.601-2.602 0.155 0.035 0.306 0.089 0.448 0.16 0.374 0.2 0.79 0.306 1.214 0.308zM13.867 5.333c0.32 0.001 0.635 0.080 0.917 0.23 0.372 0.196 0.785 0.3 1.205 0.303h0.022c0.42-0.003 0.833-0.106 1.205-0.301 0.282-0.151 0.597-0.231 0.917-0.233 0.67 0.023 1.295 0.342 1.707 0.87 0.013 0.019 0.027 0.036 0.043 0.053 0.616 0.805 0.939 1.796 0.917 2.81 0 0.324-0.030 0.647-0.091 0.965-0.004 0.034-0.004 0.068 0 0.101h-7.215c0.002-0.057-0.005-0.115-0.021-0.17-0.094-0.289-0.141-0.592-0.139-0.897-0.022-0.513 0.126-1.019 0.42-1.44 0.182-0.232 0.141-0.567-0.090-0.749s-0.567-0.141-0.749 0.090c-0.438 0.611-0.665 1.347-0.647 2.099 0.001 0.361 0.053 0.72 0.153 1.067h-1.13c0.004-0.034 0.004-0.068 0-0.101-0.061-0.318-0.091-0.641-0.090-0.965-0.022-1.012 0.301-2.002 0.915-2.807 0.016-0.018 0.031-0.037 0.044-0.056 0.412-0.529 1.038-0.848 1.708-0.87zM6.933 6.4c0.319 0 0.632 0.078 0.914 0.227 0.374 0.199 0.79 0.304 1.214 0.307h0.011c0.423-0.002 0.838-0.107 1.212-0.305 0.143-0.071 0.294-0.125 0.45-0.16-0.399 0.807-0.605 1.697-0.601 2.598 0.001 0.358 0.033 0.715 0.097 1.067h-5.963c0-2.058 1.196-3.733 2.667-3.733zM2.667 11.733c0-0.295 0.239-0.533 0.533-0.533h25.6c0.295 0 0.533 0.239 0.533 0.533v1.067c0 0.295-0.239 0.533-0.533 0.533h-25.6c-0.295 0-0.533-0.239-0.533-0.533zM26.133 21.333h-18.115l-0.581-2.773c-0.035-0.19-0.171-0.346-0.354-0.408s-0.386-0.019-0.529 0.111c-0.143 0.13-0.205 0.327-0.161 0.516l0.533 2.56h-1.061c-0.010 0-0.018 0-0.028 0l-1.45-6.939h23.221l-1.45 6.933c-0.010 0-0.018 0-0.028 0zM1.067 16.533v-2.667c0.001-0.385 0.211-0.739 0.548-0.926 0.071 0.824 0.759 1.457 1.586 1.459h0.1l1.419 6.789c-2.142-0.529-3.649-2.449-3.653-4.655zM24.34 30.044c-0.17 0.56-0.704 0.929-1.289 0.89h-14.102c-0.584 0.039-1.118-0.329-1.289-0.89l-1.598-7.644h1.090l1.473 7.040c0.051 0.248 0.268 0.426 0.521 0.427 0.037-0 0.074-0.004 0.11-0.011 0.139-0.029 0.26-0.112 0.337-0.23s0.105-0.263 0.076-0.401l-1.427-6.824h17.696zM30.933 16.533c-0.004 2.207-1.511 4.127-3.653 4.655l1.419-6.789h0.1c0.827-0.002 1.515-0.636 1.586-1.459 0.337 0.187 0.546 0.541 0.548 0.926z"></path>
<path d="M6.933 16.533c0 0.295-0.239 0.533-0.533 0.533s-0.533-0.239-0.533-0.533c0-0.295 0.239-0.533 0.533-0.533s0.533 0.239 0.533 0.533z"></path>
</symbol>
<symbol id="icon-candy" viewBox="0 0 32 32">
<path d="M19.714 0c-1.34 0-2.633 0.413-3.714 1.177-1.082-0.764-2.374-1.177-3.714-1.177-3.555 0-6.447 2.892-6.447 6.447 0 3.264 1.313 6.46 3.696 8.998 1.119 1.192 2.403 2.149 3.652 2.763v13.791h5.628v-13.791c1.249-0.614 2.532-1.571 3.652-2.763 2.383-2.539 3.696-5.735 3.696-8.998-0-3.555-2.892-6.447-6.448-6.447zM16.939 30.125h-1.878v-11.255c0.325 0.065 0.64 0.099 0.939 0.099s0.614-0.034 0.939-0.099v11.255zM21.099 14.162c-1.325 1.412-3.486 2.931-5.099 2.931s-3.773-1.519-5.098-2.931c-1.191-1.268-3.188-3.957-3.188-7.715 0-2.521 2.051-4.572 4.572-4.572 1.143 0 2.238 0.424 3.082 1.195l0.632 0.577 0.632-0.577c0.844-0.771 1.938-1.195 3.082-1.195 2.521 0 4.572 2.051 4.572 4.572-0 3.758-1.997 6.447-3.188 7.715z"></path>
</symbol>
<symbol id="icon-milk" viewBox="0 0 32 32">
<path d="M23.467 20.8h-14.933c-0.295 0-0.533 0.239-0.533 0.533s0.239 0.533 0.533 0.533h0.587l0.866 8.224c0.112 1.086 1.029 1.911 2.121 1.909h7.787c1.093 0.002 2.010-0.823 2.122-1.91l0.865-8.223h0.587c0.295 0 0.533-0.239 0.533-0.533s-0.239-0.533-0.533-0.533zM20.954 29.978c-0.057 0.543-0.515 0.955-1.061 0.955h-7.787c-0.546 0-1.004-0.412-1.061-0.955l-0.853-8.112h11.616z"></path>
<path d="M26.667 0h-21.333c-0.589 0-1.067 0.478-1.067 1.067 0.004 2.651 0.904 5.222 2.554 7.296l-1.774 3.851c-0.298 0.642-0.328 1.376-0.083 2.041s0.744 1.204 1.387 1.499c0.642 0.297 1.375 0.327 2.039 0.082s1.202-0.744 1.497-1.387l1.252-2.707c0.704 0.322 1.44 0.572 2.195 0.745v1.915c0 1.473 1.194 2.667 2.667 2.667s2.667-1.194 2.667-2.667v-1.915c0.755-0.173 1.491-0.423 2.195-0.747l1.251 2.705c0.293 0.644 0.83 1.145 1.494 1.39s1.397 0.216 2.039-0.082c0.644-0.295 1.144-0.834 1.389-1.498s0.216-1.399-0.081-2.041l-1.774-3.851c1.65-2.074 2.55-4.645 2.554-7.296 0-0.589-0.478-1.067-1.067-1.067zM8.918 14.002c-0.316 0.68-1.061 1.050-1.794 0.889s-1.255-0.808-1.257-1.558c0-0.232 0.051-0.462 0.148-0.673l1.578-3.423c0.767 0.79 1.642 1.467 2.599 2.011zM26.133 13.333c-0.001 0.625-0.366 1.192-0.934 1.452-0.385 0.178-0.825 0.195-1.222 0.047s-0.72-0.447-0.896-0.833l-1.273-2.753c0.957-0.544 1.832-1.221 2.599-2.011l1.578 3.425c0.097 0.211 0.147 0.44 0.148 0.672zM24.153 7.947c-0.909 1.078-2.024 1.964-3.278 2.607-0.701 0.363-1.442 0.644-2.208 0.838v-2.325c0-0.295-0.239-0.533-0.533-0.533s-0.533 0.239-0.533 0.533v5.333c0 0.884-0.716 1.6-1.6 1.6s-1.6-0.716-1.6-1.6v-5.333c0-0.295-0.239-0.533-0.533-0.533s-0.533 0.239-0.533 0.533v2.325c-0.766-0.194-1.508-0.475-2.21-0.838-1.254-0.643-2.367-1.53-3.276-2.607-1.623-1.925-2.513-4.362-2.514-6.88h21.333c-0.001 2.518-0.891 4.955-2.514 6.88z"></path>
<path d="M8.663 7.261c0.123 0.146 0.314 0.214 0.502 0.181s0.343-0.165 0.407-0.344c0.065-0.179 0.029-0.379-0.094-0.525-0.966-1.146-1.613-2.525-1.877-4-0.034-0.188-0.165-0.343-0.344-0.408s-0.379-0.029-0.525 0.094c-0.146 0.123-0.215 0.314-0.181 0.502 0.298 1.659 1.026 3.211 2.113 4.5z"></path>
<path d="M16.533 19.2v-0.533c0-0.295-0.239-0.533-0.533-0.533s-0.533 0.239-0.533 0.533v0.533c0 0.295 0.239 0.533 0.533 0.533s0.533-0.239 0.533-0.533z"></path>
<path d="M13.867 26.133h4.267c1.178 0 2.133-0.955 2.133-2.133v-0.533c0-0.295-0.239-0.533-0.533-0.533s-0.533 0.239-0.533 0.533v0.533c0 0.589-0.478 1.067-1.067 1.067h-4.267c-0.589 0-1.067-0.478-1.067-1.067v-0.533c0-0.295-0.239-0.533-0.533-0.533s-0.533 0.239-0.533 0.533v0.533c0 1.178 0.955 2.133 2.133 2.133z"></path>
</symbol>
<symbol id="icon-right" viewBox="0 0 32 32">
<path d="M16.222 3.867c-1.008 1.008-1.008 2.637 0 3.645l5.911 5.911h-19.555c-1.423 0-2.578 1.155-2.578 2.578s1.155 2.578 2.578 2.578h19.555l-5.911 5.911c-1.008 1.008-1.008 2.637 0 3.645 0.503 0.503 1.163 0.755 1.822 0.755s1.32-0.253 1.822-0.755l12.133-12.133-12.133-12.133c-1.008-1.008-2.637-1.008-3.645 0z"></path>
</symbol>
<symbol id="icon-menu" viewBox="0 0 46 32">
<path stroke-linejoin="miter" stroke-linecap="butt" stroke-miterlimit="4" stroke-width="2.2857" d="M0 2.286h45.714"></path>
<path stroke-linejoin="miter" stroke-linecap="butt" stroke-miterlimit="4" stroke-width="2.2857" d="M0 16h45.714"></path>
<path stroke-linejoin="miter" stroke-linecap="butt" stroke-miterlimit="4" stroke-width="2.2857" d="M0 29.714h45.714"></path>
</symbol>
<symbol id="icon-close" viewBox="0 0 32 32">
<path stroke-linejoin="miter" stroke-linecap="butt" stroke-miterlimit="4" stroke-width="2" d="M2.519 2l26.963 28"></path>
<path stroke-linejoin="miter" stroke-linecap="butt" stroke-miterlimit="4" stroke-width="2" d="M2 29.481l28-26.963"></path>
</symbol>
<symbol id="icon-line" viewBox="0 0 2880 32">
<path stroke-linejoin="miter" stroke-linecap="butt" stroke-miterlimit="4" stroke-width="16" d="M0 16h2880"></path>
</symbol>
<symbol id="icon-home" viewBox="0 0 35 32">
<path d="M32.64 15.401c0.599-0.65 0.541-1.646-0.129-2.225l-14.772-12.75c-0.671-0.578-1.745-0.566-2.402 0.027l-14.822 13.403c-0.656 0.594-0.689 1.589-0.071 2.222l0.372 0.382c0.617 0.633 1.613 0.708 2.224 0.168l1.108-0.979v14.326c0 0.879 0.722 1.591 1.612 1.591h5.778c0.89 0 1.612-0.712 1.612-1.591v-10.023h7.37v10.023c-0.013 0.878 0.624 1.59 1.515 1.59h6.123c0.89 0 1.613-0.711 1.613-1.59v-14.124c0 0 0.306 0.264 0.683 0.592s1.168 0.065 1.767-0.586l0.42-0.455z"></path>
</symbol>
<symbol id="icon-github" viewBox="0 0 32 32">
<path d="M16 0.941c-8.271 0-15.059 6.788-15.059 15.059 0 7.058 4.953 13.47 11.529 15.059v-4.982c-0.652 0.143-1.251 0.147-1.915-0.049-0.89-0.263-1.613-0.856-2.15-1.76-0.342-0.577-0.949-1.203-1.581-1.157l-0.155-1.758c1.368-0.117 2.551 0.833 3.254 2.013 0.312 0.525 0.671 0.832 1.132 0.969 0.446 0.131 0.924 0.068 1.481-0.129 0.14-1.116 0.651-1.534 1.037-2.122v-0.001c-3.922-0.585-5.486-2.666-6.106-4.308-0.822-2.181-0.381-4.905 1.073-6.627 0.028-0.034 0.079-0.121 0.060-0.183-0.667-2.014 0.146-3.679 0.176-3.856 0.769 0.228 0.894-0.229 3.342 1.258l0.423 0.254c0.177 0.105 0.121 0.045 0.298 0.032 1.022-0.278 2.099-0.431 3.16-0.445 1.069 0.014 2.14 0.167 3.204 0.456l0.137 0.014c-0.012-0.002 0.037-0.009 0.12-0.058 3.057-1.852 2.947-1.247 3.767-1.513 0.030 0.177 0.831 1.87 0.172 3.858-0.089 0.274 2.65 2.782 1.132 6.809-0.62 1.643-2.184 3.724-6.106 4.309v0.001c0.503 0.766 1.107 1.174 1.104 2.755v6.219c6.577-1.589 11.529-8.001 11.529-15.059 0-8.271-6.787-15.059-15.059-15.059v0z"></path>
</symbol>
<symbol id="icon-telegram" viewBox="0 0 40 32">
<path d="M16.205 20.751l-0.635 8.339c0.909 0 1.302-0.364 1.774-0.802l4.261-3.801 8.829 6.035c1.619 0.842 2.76 0.399 3.197-1.39l5.797-25.346c0.514-2.234-0.866-3.108-2.443-2.56l-34.065 12.172c-2.325 0.842-2.29 2.052-0.395 2.6l8.709 2.528 20.229-11.814c0.952-0.588 1.818-0.263 1.106 0.326l-16.364 13.713z"></path>
</symbol>
<symbol id="icon-facebook" viewBox="0 0 16 32">
<path d="M14.266 15.97h-4.176v15.39h-6.327v-15.39h-3.009v-5.409h3.009v-3.5c0-2.503 1.182-6.422 6.384-6.422l4.687 0.020v5.25h-3.401c-0.558 0-1.342 0.28-1.342 1.474v3.183h4.729l-0.553 5.403z"></path>
</symbol>
<symbol id="icon-burger" viewBox="0 0 20 14">
<path d="M0 1h20M0 7h20M0 13h20" stroke="#D41443"/>
</symbol>
</defs>
</svg>
